<?xml version="1.0" encoding="UTF-8" standalone="no"?>
<!-- Generator: Adobe Illustrator 22.1.0, SVG Export Plug-In . SVG Version: 6.00 Build 0)  -->

<svg
   xmlns:dc="http://purl.org/dc/elements/1.1/"
   xmlns:cc="http://creativecommons.org/ns#"
   xmlns:rdf="http://www.w3.org/1999/02/22-rdf-syntax-ns#"
   xmlns:svg="http://www.w3.org/2000/svg"
   xmlns="http://www.w3.org/2000/svg"
   xmlns:xlink="http://www.w3.org/1999/xlink"
   xmlns:sodipodi="http://sodipodi.sourceforge.net/DTD/sodipodi-0.dtd"
   xmlns:inkscape="http://www.inkscape.org/namespaces/inkscape"
   version="1.1"
   id="Layer_1"
   x="0px"
   y="0px"
   viewBox="0 0 195.8 139.60001"
   xml:space="preserve"
   sodipodi:docname="Sancor.svg"
   width="195.8"
   height="139.60001"
   inkscape:version="0.92.4 (5da689c313, 2019-01-14)"><metadata
   id="metadata3774"><rdf:RDF><cc:Work
       rdf:about=""><dc:format>image/svg+xml</dc:format><dc:type
         rdf:resource="http://purl.org/dc/dcmitype/StillImage" /><dc:title></dc:title></cc:Work></rdf:RDF></metadata><defs
   id="defs3772"><linearGradient
   inkscape:collect="always"
   id="linearGradient4617"><stop
     style="stop-color:#56b8ff;stop-opacity:1"
     offset="0"
     id="stop4613" /><stop
     style="stop-color:#0075cf;stop-opacity:1"
     offset="1"
     id="stop4615" /></linearGradient>
	
	
	
	
<radialGradient
   inkscape:collect="always"
   xlink:href="#linearGradient4617"
   id="radialGradient4621"
   cx="377.71368"
   cy="445.73145"
   fx="377.71368"
   fy="445.73145"
   r="87.900002"
   gradientTransform="matrix(1.9145261,-7.6422837e-8,0,1.1078695,-343.60149,-48.442448)"
   gradientUnits="userSpaceOnUse" /></defs><sodipodi:namedview
   pagecolor="#ffffff"
   bordercolor="#666666"
   borderopacity="1"
   objecttolerance="10"
   gridtolerance="10"
   guidetolerance="10"
   inkscape:pageopacity="0"
   inkscape:pageshadow="2"
   inkscape:window-width="958"
   inkscape:window-height="1008"
   id="namedview3770"
   showgrid="false"
   fit-margin-top="10"
   fit-margin-left="10"
   fit-margin-bottom="10"
   fit-margin-right="10"
   inkscape:zoom="0.83162518"
   inkscape:cx="182.54948"
   inkscape:cy="43.795478"
   inkscape:window-x="953"
   inkscape:window-y="0"
   inkscape:window-maximized="0"
   inkscape:current-layer="g3806" />
<style
   type="text/css"
   id="style3757">
	.st0{fill-rule:evenodd;clip-rule:evenodd;fill:#FFFFFF;}
	.st1{fill-rule:evenodd;clip-rule:evenodd;fill:#00BBE6;}
	.st2{fill-rule:evenodd;clip-rule:evenodd;fill:#0060A9;}
</style>
<g
   id="g3806"
   transform="translate(-282.44122,-376.66978)"><path
     class="st1"
     d="m 380.34122,506.26978 c 48.5,0 87.9,-26.8 87.9,-59.8 0,-33 -39.3,-59.8 -87.9,-59.8 -48.5,0 -87.9,26.8 -87.9,59.8 0,33 39.3,59.8 87.9,59.8 z"
     id="path3761"
     inkscape:connector-curvature="0"
     style="clip-rule:evenodd;fill:url(#radialGradient4621);fill-opacity:1;fill-rule:evenodd" /><path
     class="st1"
     d="m 380.79214,501.77286 c 47.42185,0 85.946,-24.91386 85.946,-55.59138 0,-30.67751 -38.42637,-55.59136 -85.946,-55.59136 -47.42185,0 -85.94599,24.91385 -85.94599,55.59136 0,30.67752 38.42636,55.59138 85.94599,55.59138 z"
     id="path3761-7"
     inkscape:connector-curvature="0"
     style="clip-rule:evenodd;fill:#8fc8ff;fill-opacity:0.1928934;fill-rule:evenodd;stroke-width:0.95339191" /><path
     class="st2"
     d="m 380.34122,483.46978 c 46.9,0 84.9,-16.6 84.9,-37.1 0,-20.5 -38,-37.1 -84.9,-37.1 -46.9,0 -84.9,16.6 -84.9,37.1 0,20.5 38,37.1 84.9,37.1 z"
     id="path3763"
     inkscape:connector-curvature="0"
     style="clip-rule:evenodd;fill:#0017a9;fill-rule:evenodd;fill-opacity:0.56852794" /><path
     class="st0"
     d="m 339.04122,430.16978 c 2.4,3 3.4,6.5 3.4,9.5 -1.6,0 -3.3,0 -5.7,0 -0.5,-3.7 -2.4,-6.7 -6.2,-7.7 -3.4,-0.8 -6.7,1.8 -7.5,3 -0.7,0.7 0.1,1.3 0.1,1.3 8.8,9.2 20,11.9 14,23 -2,2.4 -4.3,4.5 -8.3,4.6 -3.9,0 -8,-2 -9.5,-6 -0.7,-1.5 -1.1,-2.9 -1.1,-4.5 2.3,0.1 3.7,0 5.9,0.1 0.6,2.5 1.6,3.9 4.1,4.2 1.9,0.2 3.5,-1.1 4.1,-2.5 0.5,-1.4 -0.5,-3 -0.5,-3 -5.4,-4.7 -11.1,-9 -16.6,-14.2 0.2,-4.9 3.7,-9.3 8.1,-11.3 5.1,-2.5 11.9,-1.4 15.7,3.5 z m 81.2,33.8 c 5.8,0 10.5,-4.7 10.5,-10.5 0,-0.1 0,-0.3 0,-0.4 0.8,-0.4 2.1,-1 3,-1.9 0,4.6 -0.1,8.7 0,12.8 1.9,0 4.4,-0.1 6.5,0 0,-5.1 0.1,-7 0,-12.5 -0.2,-3.5 8.1,-3.2 10.3,-0.6 v -5.4 c 0,-0.9 -2.4,-2.2 -4.7,-2.2 -1.5,-0.3 -4,0.3 -5.2,1.4 -0.2,0 -0.6,-0.6 -1.1,-1.1 -1.3,0 -3.4,0.1 -5.6,0 -1,1 -2.1,2.7 -5.2,3.7 -1.9,-2.6 -5,-4.2 -8.4,-4.2 -5.8,0 -10.5,4.7 -10.5,10.5 0,0.8 0.1,1.6 0.3,2.3 -3.1,2.8 -8.7,1.8 -11,-1.2 -2.5,-2.9 -3.4,-6.4 -2.9,-10.5 0.9,-4.3 2.9,-6.6 6.1,-8.1 6.2,-1.2 8.7,1.3 9.7,3.7 2.1,0 3.9,0.1 5.6,0 -0.2,-3.5 -2.1,-10.2 -13.1,-10.6 -4.9,0.5 -8.6,2.4 -11.4,6.4 -5.6,7 -3.8,15.8 -0.3,21.7 -3.3,0 -8,0.1 -12,0 2.6,-3.6 1.6,-9 -1.3,-11.9 -2.7,-2.3 -6,-2.8 -10.4,-1.1 -0.5,0.1 -0.4,-0.6 -0.8,-0.6 -2.1,0 -3.4,0.1 -5.7,0.1 -0.1,3 0,9 0,12.5 -0.5,1.6 -1.6,1.9 -2.3,0.5 -1.8,-5 -2.7,-8.2 -4.3,-13 -1.8,0 -4.3,0 -6.9,0 -2.6,0.2 -5.6,1.5 -7.1,4.1 -1.7,2.7 -2.3,6 -1.3,9.4 2,5.4 4.6,6.7 10.4,6.8 6.6,0 12.5,0 17.9,-0.1 v -11.7 c 0.3,-0.9 0.6,-1.8 1.6,-2.4 1.6,-0.6 4.1,-1.2 5.4,1.2 1.7,3.8 -1.3,5.8 -3.5,7.2 1.3,2.2 2,3.4 3.2,5.7 h 27 c 5.6,-0.2 7.3,-0.4 10.6,-2.7 1.8,1.7 4.2,2.7 6.9,2.7 z m -71.5,-13.7 c -1.4,0.8 -1.9,1.4 -2,3.5 0.3,2.2 1.4,3.3 2.8,3.4 1.7,0 2.9,0 4.2,0 l -2.1,-7.2 c -0.1,-0.3 -1.9,-0.3 -2.9,0.3 z m 71.5,7.1 c 2.1,0 3.8,-1.7 3.8,-3.8 0,-2.1 -1.7,-3.8 -3.8,-3.8 -2.1,0 -3.8,1.7 -3.8,3.8 0,2.1 1.7,3.8 3.8,3.8 z"
     id="path3765"
     inkscape:connector-curvature="0"
     style="clip-rule:evenodd;fill:#ffffff;fill-rule:evenodd" /></g>
</svg>