<?xml version="1.0" encoding="UTF-8" standalone="no"?>
<!-- Creator: CorelDRAW -->

<svg
   xmlns:dc="http://purl.org/dc/elements/1.1/"
   xmlns:cc="http://creativecommons.org/ns#"
   xmlns:rdf="http://www.w3.org/1999/02/22-rdf-syntax-ns#"
   xmlns:svg="http://www.w3.org/2000/svg"
   xmlns="http://www.w3.org/2000/svg"
   xmlns:sodipodi="http://sodipodi.sourceforge.net/DTD/sodipodi-0.dtd"
   xmlns:inkscape="http://www.inkscape.org/namespaces/inkscape"
   xml:space="preserve"
   width="550px"
   height="115px"
   style="shape-rendering:geometricPrecision; text-rendering:geometricPrecision; image-rendering:optimizeQuality; fill-rule:evenodd; clip-rule:evenodd"
   viewBox="0 0 550 114.999"
   id="svg3136"
   version="1.1"
   inkscape:version="0.48.1 "
   sodipodi:docname="santanderrio_logo.svg"><metadata
   id="metadata3188"><rdf:RDF><cc:Work
       rdf:about=""><dc:format>image/svg+xml</dc:format><dc:type
         rdf:resource="http://purl.org/dc/dcmitype/StillImage" /></cc:Work></rdf:RDF></metadata><sodipodi:namedview
   pagecolor="#ffffff"
   bordercolor="#666666"
   borderopacity="1"
   objecttolerance="10"
   gridtolerance="10"
   guidetolerance="10"
   inkscape:pageopacity="0"
   inkscape:pageshadow="2"
   inkscape:window-width="1366"
   inkscape:window-height="706"
   id="namedview3186"
   showgrid="false"
   inkscape:zoom="1.8272144"
   inkscape:cx="265.76291"
   inkscape:cy="57.316003"
   inkscape:window-x="-8"
   inkscape:window-y="-8"
   inkscape:window-maximized="1"
   inkscape:current-layer="svg3136"
   showguides="true"
   inkscape:guide-bbox="true" />
 <defs
   id="defs3138">
  <style
   type="text/css"
   id="style3140">
   
    .fil0 {fill:#DE2919}
    .fil2 {fill:#E65A42}
    .fil3 {fill:#EF8C73}
    .fil4 {fill:#F7BDA5}
    .fil1 {fill:white}
   
  </style>
 
  
  
 
   
   
   
   
   
   
   
   
   
   
   
   
   
   
   
   
   
   
   
   
   
   
   
   
   
   
   
   
   
   
   
   
   
   
   
   
   
   
   
   
   
  </defs>
 
<g
   id="g4182"><path
     style="fill:#ee332a;fill-opacity:1"
     inkscape:connector-curvature="0"
     d="m 5.7378,109.694 c 0,-34.9867 0,-69.9721 0,-104.948 179.499,0 359.012,0 538.523,0 0,34.976 0,69.9615 0,104.948 -179.511,0 -359.024,0 -538.523,0 z"
     class="fil0"
     id="_164475816" /><path
     style="fill:#ffffff"
     inkscape:connector-curvature="0"
     d="m 119.701,80.8111 c 0,-4.17638 0,-8.35277 0,-12.5292 0.59291,-0.01299 1.19882,-0.01299 1.80473,-0.01299 1.10788,5.69765 4.73032,11.0091 11.0339,11.6788 4.42205,-0.180709 7.54135,-0.953151 9.98978,-4.963 0,-0.618899 0.40039,-1.28858 0.49016,-1.92048 -0.0898,-2.95158 -0.12874,-3.69922 -1.73977,-6.2256 -0.56693,-0.542127 -1.13504,-1.08307 -1.70197,-1.61221 -7.81182,-5.24646 -17.6079,-6.54804 -19.5674,-16.8733 0.23149,-6.68977 2.44843,-9.78427 8.46852,-12.9295 0.63189,-0.115748 3.17126,-0.501969 3.58347,-0.889371 5.47914,-0.399213 10.3122,0.477166 15.3921,2.14016 0,3.75119 0,7.51537 0,11.2795 -0.60591,0 -1.19882,0 -1.79173,0 -1.12205,-5.9693 -3.95788,-9.56576 -9.99096,-10.6996 -3.38977,0.115748 -5.31024,0.516142 -7.82481,2.97756 -2.89961,4.74331 -0.72166,8.39174 3.313,11.2146 3.58347,1.90866 7.16694,3.81615 10.7516,5.72363 6.48308,4.7693 8.21104,8.58545 6.53505,16.565 -1.26378,2.42244 -1.26378,2.42244 -1.97244,3.49252 -3.18426,3.33898 -6.94844,5.18268 -11.511,5.59489 -0.90236,-0.01299 -8.98466,0.412205 -10.0677,-0.669686 -1.86969,-0.206693 -3.41575,-0.786615 -5.1945,-1.34173 z"
     class="fil1"
     id="_164476008" /><path
     id="_164476080"
     transform="translate(0,-5e-4)"
     d="M 507.71875 51.75 C 503.05218 51.84095 501.09469 51.99901 497.125 54.125 C 496.46713 54.602168 495.78169 55.085334 495.125 55.5625 C 490.97342 59.61012 490.19769 63.30363 490.09375 68.9375 C 490.88035 76.41392 496.92061 81.946652 504.28125 82.875 C 505.89228 82.810039 507.51279 82.73947 509.125 82.6875 C 509.30453 82.506791 509.27967 82.506891 511.78125 81.875 C 514.95251 80.30295 516.82731 78.73061 519.03125 76.0625 C 521.36511 72.01485 521.5935 68.95552 521.375 64.25 C 521.19429 64.06929 521.02446 62.804528 520.84375 62.625 C 520.84375 61.10374 519.09139 59.00733 518.34375 57.71875 C 515.39215 54.59827 512.03687 52.25315 507.71875 51.75 z M 504.21875 54.4375 C 509.09199 54.644193 510.94434 56.49965 512.96875 60.84375 C 512.96875 61.229971 513.22953 62.19827 513.5 62.46875 C 513.5 63.009696 513.66609 63.186065 514.15625 66.71875 C 514.14325 67.556153 514.5063 73.46363 513.5 74.46875 C 513.5 76.81442 510.71624 78.76841 508.9375 79.8125 C 508.09891 79.928248 507.24365 80.058759 506.40625 80.1875 C 503.4027 79.852066 501.7317 78.72161 499.875 76.15625 C 499.19232 74.84168 498.09375 72.96648 498.09375 71.40625 C 497.91304 71.225541 497.93071 70.524457 497.75 70.34375 C 497.15709 64.92957 496.76835 55.4568 504.21875 54.4375 z "
     style="fill:#ffffff" /><path
     id="_165144800"
     transform="translate(0,-5e-4)"
     d="M 261.6875 51.5625 C 260.22377 51.677727 258.50517 52.25 257.5625 52.25 C 252.41998 54.54486 246.95374 57.77415 250.125 63.78125 C 251.56831 63.78125 253.29744 62.673672 254.625 62.09375 C 254.625 61.746506 254.61142 61.760877 254.25 61.21875 C 254.25 59.74946 253.6379 58.76107 254.4375 57.34375 C 256.4749 55.074854 259.01973 54.15699 261.84375 55.5625 C 264.40793 58.38534 264.15251 60.62135 264.28125 64.4375 C 257.53946 66.8611 243.64832 69.43135 249.0625 79.71875 C 251.1377 82.090404 252.99645 82.514518 256 82.65625 C 259.18308 82.27002 261.8904 80.07579 264.46875 78.375 C 264.75222 79.97303 265.34975 81.639418 266.78125 82.59375 C 269.84858 81.44572 272.91968 80.32254 276 79.1875 C 276.026 78.50482 276.06775 77.807678 276.09375 77.125 C 274.53351 77.576182 273.48603 77.896998 271.875 77.78125 C 271.12736 76.8529 271.03499 76.55556 270.90625 75.34375 L 270.90625 59.96875 C 270.32632 55.90812 267.90439 52.919342 263.84375 52.09375 C 263.3654 51.615403 262.56574 51.493364 261.6875 51.5625 z M 264.1875 66.59375 L 264.1875 76.34375 C 260.44931 79.28352 254.73088 80.02382 254.125 73.875 C 254.5502 69.36318 260.7198 68.06423 264.1875 66.59375 z "
     style="fill:#ffffff" /><path
     inkscape:connector-curvature="0"
     id="_165144872"
     d="m 345.8125,30.062 c -3.84209,0.30945 -8.09758,2.87972 -11.65625,4.375 -0.0248,0.68268 -0.0495,1.36683 -0.0625,2.0625 1.61102,-0.45118 4.71934,-1.81782 5.09375,0.8125 l 0.1875,0 0,15.65625 -0.1875,0 c -7.4893,-3.23505 -15.0837,-0.48884 -19.96875,5.53125 -0.43819,0.73465 -1.40625,1.868355 -1.40625,2.71875 -5.5678,13.40675 6.70495,26.82176 19.96875,18.6875 0.52913,-0.462992 1.03336,-0.910826 1.5625,-1.375 0.47716,0.36023 0.51452,1.076328 0.65625,1.65625 0.34843,0.63071 0.35374,0.61333 1.875,2.40625 3.15827,-1.10906 6.32874,-2.21762 9.5,-3.3125 -0.052,-0.70985 -0.086,-1.39808 -0.125,-2.09375 -0.43819,0.102756 -1.5095,0.352066 -1.84375,0.6875 C 346.77593,77.74576 346.16771,77.58405 346,74.812 345.9362,59.8852 345.8633,44.977 345.8125,30.062 z m -12.125,24.59375 c 2.11277,0.09522 3.90477,0.976129 5.5,3.3125 l 0,17.46875 c -0.79961,1.01929 -1.58617,1.67288 -2.65625,2.34375 -1.61221,0.43819 -1.63298,0.413041 -1.8125,0.59375 -3.41693,0 -4.54842,-0.147045 -7.5,-1.875 -1.53425,-1.70079 -1.54133,-1.68272 -2.25,-2.84375 -2.75906,-6.38032 -2.24302,-15.0725 4.5625,-18.4375 1.50812,-0.381791 2.88859,-0.619629 4.15625,-0.5625 z"
     style="fill:#ffffff" /><path
     id="_165144944"
     transform="translate(0,-5e-4)"
     d="M 370.375 51.6875 C 369.31319 51.658416 368.19779 51.73824 367.65625 51.71875 C 367.59129 51.770719 367.552 51.84247 367.5 51.90625 C 365.52756 51.90625 363.72923 52.846111 361.9375 53.59375 C 359.81033 55.05005 358.41698 56.3871 356.84375 58.4375 C 356.30281 59.35286 354.875 61.36122 354.875 62.625 C 354.70729 62.804527 354.71078 63.350541 354.53125 63.53125 C 353.31941 72.18048 355.9527 78.32032 363.90625 81.96875 C 370.12005 83.01285 375.68552 82.86457 380.6875 78.25 C 380.72647 77.33465 380.7617 76.433613 380.8125 75.53125 C 376.61012 77.928895 373.32501 79.16078 368.375 77.78125 C 362.56161 75.26785 361.37594 70.69238 361.15625 64.96875 C 361.10545 64.878981 361.0773 64.87219 381.625 64.78125 C 381.72775 58.56859 378.90281 54.14449 372.84375 52.25 C 372.43804 51.8437 371.43681 51.716584 370.375 51.6875 z M 368.8125 54.5625 C 369.83086 54.61684 370.87653 54.938877 371.96875 55.5625 C 374.03096 57.45699 374.53524 59.24341 374.625 61.9375 C 370.2431 61.95049 365.88313 61.97402 361.5 62 C 360.98504 60.18228 363.02987 57.56983 363.90625 56.28125 C 365.49336 55.113431 367.11524 54.471933 368.8125 54.5625 z "
     style="fill:#ffffff" /><path
     style="fill:#ffffff"
     inkscape:connector-curvature="0"
     d="m 228.02,55.9194 c -1.61103,-0.0378 -3.22205,-0.06378 -4.83308,-0.08976 -0.013,-0.579922 -0.026,-1.14685 -0.026,-1.71378 4.5756,-2.39882 7.78584,-4.89922 10.2095,-9.55277 0.42519,-0.03898 0.85039,-0.07677 1.27559,-0.102756 0.052,2.83583 0.11574,5.67166 0.1807,8.50749 3.40276,0.02598 6.80552,0.05197 10.2095,0.09094 0,0.08976 0,0.179528 0,0.270473 -0.4122,0.824411 -0.59291,1.73977 -1.08307,2.5004 -3.04252,0 -6.08387,0 -9.12639,0 -0.039,5.78741 -0.065,11.576 -0.0909,17.3764 0.59409,4.16339 3.21024,5.02796 7.07718,4.38308 1.77874,-0.721655 1.77874,-0.721655 2.32087,-0.773623 0.27047,0.50315 0.27047,0.863387 0.63189,1.48229 -1.94646,1.25079 -3.89292,2.50158 -5.82757,3.76418 -4.02166,0.399213 -6.40631,0.02598 -9.21615,-3.14528 -0.90236,-1.62402 -1.21181,-2.79685 -1.57323,-4.60158 -0.0508,-6.13584 -0.0898,-12.2717 -0.12874,-18.3957 z"
     class="fil1"
     id="_165145016" /><path
     style="fill:#e65a42"
     inkscape:connector-curvature="0"
     d="m 428.006,82.0619 c 5.90316,0 11.8075,0 17.7236,0 0,0.05197 0,0.115748 0,0.180709 -5.91615,0 -11.8205,0 -17.7236,0 0,-0.06496 0,-0.12874 0,-0.180709 z"
     class="fil2"
     id="_165145112" /><path
     style="fill:#e65a42"
     inkscape:connector-curvature="0"
     d="m 459.51,81.9722 c 3.81615,0.02598 7.63229,0.05079 11.4603,0.08976 0,0.05197 0,0.115748 0,0.180709 -3.82796,0 -7.64411,0 -11.4603,0 0,-0.08976 0,-0.180709 0,-0.270473 z"
     class="fil2"
     id="_165143440" /><path
     style="fill:#e65a42"
     inkscape:connector-curvature="0"
     d="m 472.234,82.0619 c 5.27127,-0.03898 10.5567,-0.06378 15.8421,-0.08976 0.039,0.08976 0.039,0.08976 -15.8421,0.08976 z"
     class="fil2"
     id="_165145088" /><path
     style="fill:#ef8c73"
     inkscape:connector-curvature="0"
     d="m 185.946,81.8812 c 5.24646,0 10.4929,0 15.7524,0 0,0.05197 0,0.116929 0,0.180709 -5.25946,0 -10.5059,0 -15.7524,0 0,-0.06378 0,-0.12874 0,-0.180709 z"
     class="fil3"
     id="_165143584" /><path
     id="_165143560"
     transform="translate(0,-5e-4)"
     d="M 448.59375 35.4375 C 441.72325 35.46349 434.85749 35.46102 428 35.5 C 427.987 36.1437 427.96875 36.812056 427.96875 37.46875 C 430.28843 37.72741 432.08243 37.88454 433.28125 40.0625 L 433.28125 77.3125 C 432.62456 79.413688 429.87869 80 427.90625 80 C 427.93215 80.68268 427.961 81.36683 428 82.0625 L 445.71875 82.0625 L 445.71875 80 C 443.65654 79.78031 441.32687 79.66496 440.4375 77.5 C 440.4623 71.8271 440.49225 66.14041 440.53125 60.46875 C 442.41275 60.571507 444.306 60.696752 446.1875 60.8125 C 450.62259 67.8637 455.05314 74.91756 459.5 81.96875 C 463.31619 81.99473 467.14079 82.02352 470.96875 82.0625 L 470.96875 80 C 467.1656 79.45787 466.10842 78.28632 463.53125 75.4375 C 460.1533 70.3079 456.80128 65.18022 453.4375 60.0625 C 453.39854 59.907775 453.36855 59.748475 453.34375 59.59375 C 456.53982 58.26618 459.00182 56.73834 461.21875 54.03125 C 464.19631 49.26194 464.0286 45.57771 461.21875 40.78125 C 457.77701 37.03124 453.50478 35.759941 448.59375 35.4375 z M 444.1875 37.90625 C 447.66432 37.849003 450.67129 38.364714 453.6875 40.78125 C 456.23987 44.32692 456.70793 49.35705 454.59375 53.25 C 450.22367 58.71615 447.13125 58.13893 440.53125 57.90625 L 440.53125 38.09375 C 441.80743 38.000443 443.02856 37.925332 444.1875 37.90625 z "
     style="fill:#ffffff" /><path
     style="fill:#ffffff"
     inkscape:connector-curvature="0"
     d="m 472.234,82.0619 c 0.0248,-0.553938 0.0508,-1.09606 0.0768,-1.63701 1.54725,-0.115748 4.00867,-0.56693 4.39607,-2.38465 0.026,-6.32954 0.0508,-12.6591 0.0898,-18.9874 -0.95434,-2.07638 -2.51339,-1.81772 -4.47284,-1.07008 0,-0.657875 0,-1.31575 0,-1.97244 3.26103,-1.39252 6.52206,-2.78504 9.78427,-4.16339 0.46417,-0.01299 0.92834,-0.02598 1.40433,-0.03898 0.026,8.79096 0.052,17.5961 0.0909,26.4 1.2248,1.83071 2.20394,1.92048 4.39489,2.22992 0.026,0.50315 0.052,1.01811 0.0779,1.53425 -5.28544,0.02598 -10.5709,0.05079 -15.8421,0.08976 z"
     class="fil1"
     id="_165143728" /><path
     style="fill:#ffffff"
     inkscape:connector-curvature="0"
     d="m 197.225,58.8721 c -0.039,6.26458 -0.065,12.5292 -0.0909,18.8067 0,1.86969 3.15827,2.68111 4.56379,2.68111 0,0.50315 0,1.0063 0,1.52126 -5.25946,0 -10.5059,0 -15.7524,0 0,-0.514961 0,-1.01811 0,-1.52126 1.30158,0 4.39608,-0.811418 4.39608,-2.5004 0,-6.27757 0,-12.5421 0,-18.8067 0,-2.52756 -3.02953,-1.57323 -4.39608,-1.25079 0.039,-0.683859 0.0768,-1.35355 0.12874,-2.02441 3.37678,-1.4563 7.10316,-3.80197 10.7894,-4.06064 0.052,1.54725 0.11575,3.09449 0.18071,4.65355 4.70434,-3.80197 8.41773,-6.12284 14.5016,-3.49252 3.19725,2.28189 4.55079,4.74331 4.92402,8.50749 0,5.42717 0,10.8543 0,16.2933 0.86457,1.98544 2.47559,2.68111 4.65355,2.68111 -0.0378,0.529135 -0.0638,1.07008 -0.0898,1.61221 -5.25946,0 -10.5059,0 -15.7524,0 -0.039,-0.542127 -0.065,-1.08307 -0.0898,-1.61221 1.95827,0 3.26103,-0.772442 4.48583,-2.15197 0.013,-5.59489 0.0248,-11.1898 0.0378,-16.7835 -0.23149,-1.79173 -0.6437,-2.61733 -1.57205,-4.1256 -1.28977,-0.721655 -4.71851,-2.47441 -6.08505,-1.10788 -1.94646,0.488977 -3.24804,1.53307 -4.83308,2.68111 z"
     class="fil1"
     id="_165143800" /><path
     style="fill:#ffffff"
     inkscape:connector-curvature="0"
     d="m 282.535,77.6789 c 0,-6.21261 0,-12.4264 0,-18.626 0,-2.84882 -3.17126,-1.25079 -4.47284,-1.25079 0,-0.657875 0,-1.31457 0,-1.97244 3.42875,-1.46929 7.28269,-3.85394 11.0079,-4.1126 0.052,1.54725 0.11575,3.09449 0.18071,4.65355 3.71221,-3.15709 6.05906,-4.71733 11.0469,-4.52363 0.85157,0.19252 1.70197,0.386221 2.56536,0.579922 3.86693,2.44843 5.20749,4.67953 5.81339,8.95867 0.026,5.49095 0.052,10.9831 0.0909,16.474 0.66969,1.92048 2.66811,2.5004 4.5626,2.5004 -0.0378,0.529135 -0.0638,1.07008 -0.0898,1.61221 -5.25946,0 -10.5059,0 -15.7524,0 -0.039,-0.542127 -0.065,-1.08307 -0.0898,-1.61221 1.93347,0 3.27402,-0.75945 4.47284,-2.15197 0,-5.91733 0,-11.8205 0,-17.7248 -0.25867,-0.231496 -0.88937,-2.19095 -1.07008,-2.51339 -3.53268,-3.9189 -7.88978,-1.61103 -11.3693,0.902363 -0.039,6.32954 -0.065,12.6579 -0.091,18.9874 0.85158,1.83071 2.61733,2.5004 4.56379,2.5004 0,0.50315 0,1.0063 0,1.52126 -5.25946,0.02598 -10.5059,0.05197 -15.7524,0.09094 -0.039,-0.542127 -0.065,-1.08307 -0.0898,-1.61221 1.84252,0 4.02166,-0.75945 4.47284,-2.68111 z"
     class="fil1"
     id="_165143872" /><path
     style="fill:#ffffff"
     inkscape:connector-curvature="0"
     d="m 408.309,52.1682 c 0,2.38583 0,4.77048 0,7.15513 -0.45118,0.02598 -0.90236,0.05079 -1.34055,0.08976 -1.62402,-4.5378 -6.38151,-3.14528 -9.12639,-0.193701 -0.33543,0.542127 -0.67087,1.08307 -0.99331,1.6252 -0.0378,5.6067 -0.0638,11.2146 -0.0898,16.8343 1.12087,2.24292 3.40276,2.68111 5.82639,2.68111 0,0.50315 0,1.0063 0,1.52126 -5.61969,0.02598 -11.2276,0.05197 -16.8355,0.09094 -0.0378,-0.542127 -0.0638,-1.08307 -0.0898,-1.61221 1.61103,0 3.49371,-0.721655 4.30512,-2.15197 0.013,-6.43229 0.026,-12.8646 0.039,-19.2969 -0.70866,-2.15315 -2.61733,-1.74095 -4.3441,-1.10906 0.013,-0.69567 0.039,-1.39252 0.065,-2.0752 3.37678,-1.44449 7.10198,-3.75119 10.7764,-4.00985 0.0378,2.06339 0.0898,4.1256 0.14173,6.1878 2.82284,-4.69135 6.02009,-7.4504 11.6658,-5.73662 z"
     class="fil1"
     id="_165174664" /><path
     style="fill:#e65a42"
     inkscape:connector-curvature="0"
     d="m 119.701,68.282 c 0,4.17638 0,8.35277 0,12.5292 -0.065,0 -0.12874,0 -0.18071,0 0,-4.17638 0,-8.35277 0,-12.5292 0.052,0 0.11575,0 0.18071,0 z"
     class="fil2"
     id="_165174760" /><path
     d="m 171.985,66.58 c 0,3.2752 0,6.56221 0,9.84923 -3.3,1.81772 -6.65198,3.68623 -9.51379,0.07677 -0.95315,-3.48071 -0.55394,-5.09174 2.52756,-6.97324 2.31969,-0.993309 4.65355,-1.97244 6.98623,-2.95276 z m 6.716,-6.8055 c 0,5.01379 0,10.0288 0,15.0425 0.10394,1.39252 0.11575,1.88268 0.98032,2.95276 1.54607,0.115748 2.53937,-0.141732 4.04764,-0.529135 0.0248,0.644883 0.0508,1.28977 0.0898,1.94646 -3.08032,1.13504 -6.16182,2.2689 -9.24214,3.41693 -1.41851,-0.967324 -2.0374,-2.60433 -2.32087,-4.21536 -4.79528,3.17008 -9.44883,6.34135 -14.5925,2.24292 -2.13898,-2.34685 -2.02323,-4.18938 -1.8815,-7.25788 0.18071,-0.167717 0.18071,-0.527954 1.70197,-2.59134 4.25316,-3.27402 9.59056,-4.5626 14.5914,-6.35434 -0.12874,-3.75119 0.15472,-6.12284 -2.42244,-8.86891 -3.0815,-1.53425 -5.90434,-0.270473 -7.78702,2.42363 -0.20551,1.28858 -0.19252,2.65512 0.54213,3.76418 0,0.115748 0,0.231496 0,0.347245 -1.34055,0.592914 -3.00355,1.65 -4.45985,1.74095 -1.41851,-2.68111 -1.47047,-4.57678 0.42519,-7.19292 2.55237,-2.30788 5.83938,-4.42205 9.26812,-4.88623 5.81339,-0.07677 9.78427,2.01142 11.0599,8.01852 z"
     style="fill:#fffafa"
     id="_165174904" /><path
     style="fill:#ff0000"
     inkscape:connector-curvature="0"
     d="m 171.985,76.4292 c 0,-3.28701 0,-6.57403 0,-9.84923 0.052,0 0.11575,0 0.18071,0 0,3.2752 0,6.56221 0,9.84923 -0.065,0 -0.12874,0 -0.18071,0 z"
     class="fil4"
     id="_165186544" /><path
     style="fill:#ff0000"
     inkscape:connector-curvature="0"
     d="m 264.192,76.3383 c 0,-3.26103 0,-6.50906 0,-9.75828 0.052,0 0.11575,0 0.18071,0 0,3.24922 0,6.49725 0,9.75828 -0.065,0 -0.12874,0 -0.18071,0 z"
     class="fil4"
     id="_165186640" /><path
     style="fill:#f7bda5"
     inkscape:connector-curvature="0"
     d="m 339.202,75.4359 c 0,-5.82639 0,-11.6398 0,-17.4532 0.0508,0 0.11575,0 0.18071,0 0,5.81339 0,11.6268 0,17.4532 -0.065,0 -0.12992,0 -0.18071,0 z"
     class="fil4"
     id="_165186712" /><path
     style="fill:#ef8c73"
     inkscape:connector-curvature="0"
     d="m 234.736,73.206 c 0.026,-5.8004 0.052,-11.589 0.0909,-17.3764 0,0.02598 0,0.05197 0,0.08976 -0.039,5.76261 -0.065,11.5252 -0.0909,17.2866 z"
     class="fil3"
     id="_165186784" /><path
     style="fill:#f7bda5"
     inkscape:connector-curvature="0"
     d="m 361.141,64.969 c -0.0508,-0.08976 -0.0508,-0.08976 20.4969,-0.180709 -6.83269,0.05197 -13.6642,0.116929 -20.4969,0.180709 z"
     class="fil4"
     id="_165186520" /><path
     style="fill:#e65a42"
     inkscape:connector-curvature="0"
     d="m 407.36992,60.7169 c 0,-2.36634 0,-4.73268 0,-7.10019 0.0516,0 0.11486,0 0.17932,0 0,2.36751 0,4.73385 0,7.10019 -0.0645,0 -0.12775,0 -0.17932,0 z"
     class="fil2"
     id="_165199872" /><path
     style="fill:#e65a42"
     inkscape:connector-curvature="0"
     d="m 439.34847,39.661325 c 0,6.536442 0,13.085744 0,19.635066 -0.0645,0 -0.12775,0 -0.17932,0 0,-6.549332 0,-13.098644 0,-19.635066 0.0516,0 0.11486,0 0.17932,0 z"
     class="fil2"
     id="_165200016" /><path
     style="fill:#ef8c73"
     inkscape:connector-curvature="0"
     d="m 235.21999,57.339136 c 0,-0.03751 0,-0.06329 0,-0.08907 3.01916,0 6.03715,0 9.05631,0 -3.01916,0.02578 -6.03715,0.05157 -9.05631,0.08907 z"
     class="fil3"
     id="_165200088" /><path
     style="fill:#ffffff"
     inkscape:connector-curvature="0"
     d="m 481.179,36.1453 c 2.22992,0 4.47284,0 6.71576,0 -3.02953,4.06064 -6.05788,8.13426 -9.08741,12.2079 -0.91536,0.03898 -1.83071,0.08976 -2.73307,0.141732 0,-0.180709 0,-0.361418 0,-0.540946 0.54095,-0.889371 0.54095,-1.25079 5.10473,-11.8087 z"
     class="fil1"
     id="_165207472" /><path
     style="fill:#e65a42"
     inkscape:connector-curvature="0"
     d="m 481.179,36.1453 c 0,-0.08976 0,-0.179528 0,-0.270473 6.75473,0.180709 6.75473,0.180709 6.71576,0.270473 -2.24292,0 -4.48583,0 -6.71576,0 z"
     class="fil2"
     id="_165207616" /><path
     style="fill:#e65a42"
     inkscape:connector-curvature="0"
     d="m 55.3087,38.222682 c -0.08186,-1.102427 -0.162654,-2.204863 -0.243449,-3.295598 0,-0.162653 0,-0.162653 0.324245,-0.162653 -0.03509,1.149204 -0.05741,2.297355 -0.08079,3.458251 z"
     class="fil2"
     id="_165207688" /><path
     style="fill:#e65a42"
     inkscape:connector-curvature="0"
     d="m 63.035319,25.656923 c -0.08079,-1.055658 -0.161591,-2.100678 -0.243449,-3.144644 0,-0.162653 0,-0.162653 0.325307,-0.162653 -0.03508,1.102426 -0.05847,2.204862 -0.08186,3.307289 z"
     class="fil2"
     id="_165207760" /><path
     sodipodi:nodetypes="csssccssssssscccscsssssscsssscsssscc"
     inkscape:connector-curvature="0"
     id="path2996"
     d="m 65.170244,15.541752 c -0.250227,2.210283 -0.145527,4.580357 0.490201,6.494138 0.856145,2.577228 2.040315,4.435237 6.40084,10.108158 4.601162,5.986036 6.073677,8.155751 7.1687,11.259961 0.895116,2.537639 0.913546,4.00396 0.529614,6.307545 4.031271,0.767861 10.63869,2.908517 15.067551,5.564306 4.108,2.526413 7.09463,5.802223 8.18852,8.980371 0.64707,1.880085 0.62065,4.794188 -0.066,6.616797 -0.65943,1.750375 -1.56343,3.211807 -2.89746,4.673152 -5.302034,5.807951 -15.800547,9.979896 -28.446876,11.307945 -2.797379,0.293767 -9.6528,0.502767 -12.003828,0.365933 -16.893271,-0.983166 -30.477821,-6.819824 -34.343797,-14.751319 -1.607734,-3.29851 -1.56851,-6.138212 0.125993,-9.400296 1.397185,-2.689716 5.226802,-6.013823 9.730255,-8.452471 4.332351,-2.085755 8.399761,-3.644299 12.759666,-4.871112 0.211667,2.846163 5.75853,9.649173 7.594611,12.057811 4.003585,5.240674 5.587316,7.740227 6.718777,9.742236 0.67961,1.202465 1.063541,1.970327 0.871564,4.25922 0,0 1.540623,-1.394829 2.121895,-2.579529 0.752122,-1.532859 1.020434,-3.088471 0.87588,-5.08707 -0.174156,-2.407388 -0.583097,-3.882494 -1.733739,-6.238874 -1.118662,-2.291007 -2.72204,-4.60855 -5.770918,-8.350482 -4.304994,-5.283592 -5.899112,-8.186181 -6.556798,-11.955831 -0.730042,-4.184334 0.445975,-8.631704 2.855475,-10.798034 0.52426,-0.471385 1.36775,-0.929839 1.36775,-0.929839 0,0 -0.07201,1.078243 -0.07201,2.303585 0,2.591543 0.295603,3.940776 1.289765,5.91492 1.234535,2.451512 2.943251,4.743227 8.18251,10.978006 4.636857,5.517925 6.076918,8.321224 6.076918,11.823855 0,0.822473 0.0034,1.688376 0.0034,1.688376 0,0 1.224854,-0.934286 1.791946,-1.790353 1.797597,-2.713577 2.082304,-6.946504 0.71389,-10.696056 -0.938107,-2.570338 -2.458233,-4.909496 -6.952793,-10.558082 -4.575475,-5.750277 -6.495118,-10.357435 -6.495118,-14.196744 0,-3.839303 0.83348,-7.502044 4.415203,-9.790223 z"
     style="fill:#ffffff;display:inline" /></g></svg>